<svg xmlns="http://www.w3.org/2000/svg" width="86.04" height="49.75" viewBox="0 0 86.04 49.75"><g id="Layer_2" data-name="Layer 2"><g id="Layer_1-2" data-name="Layer 1"><path d="M0,22.74H77.1l.51-.59c-3-2.84-6.08-5.64-9.06-8.52s-5.74-5.94-8.8-8.7c-1.57-1.4-1.56-2.3,0-3.5A10.56,10.56,0,0,0,61.07,0h.5c5.3,6,11.23,11.3,16.79,17,2.29,2.36,4.64,4.68,7,7,.79.76,1,1.17,0,2.07q-11.61,11.43-23.08,23c-1.57,1.59-2,0-2.81-.62-1-.76-1.59-1.38-.32-2.63,5.53-5.43,10.94-11,16.39-16.48.52-.53,1.07-1,1.76-1.67a4.53,4.53,0,0,0-2.73-.37H2.72c-.91,0-1.81-.06-2.72-.09Z" fill="#fff"/></g></g></svg>