<svg width="14" height="14" viewBox="0 0 14 14" fill="none" xmlns="http://www.w3.org/2000/svg">
<path d="M0 13.2311L5.5103 7.68879C4.86957 6.85583 4.48513 5.83066 4.48513 4.77346C4.48513 2.14645 6.66361 0 9.25858 0C11.8535 0 14 2.14645 14 4.74142C14 7.33638 11.8535 9.48284 9.25858 9.48284C8.16934 9.48284 7.1762 9.13043 6.31121 8.45767L0.768879 14L0 13.2311ZM9.25858 8.32952C11.2449 8.32952 12.8467 6.72769 12.8467 4.74142C12.8467 2.75515 11.2128 1.15332 9.25858 1.15332C7.30435 1.15332 5.67048 2.75515 5.67048 4.74142C5.67048 6.72769 7.27231 8.32952 9.25858 8.32952Z" fill="#12100B"/>
</svg>
