<svg xmlns="http://www.w3.org/2000/svg" width="350" height="342" viewBox="0 0 350 342"><g id="Layer_2" data-name="Layer 2"><g id="Layer_1-2" data-name="Layer 1"><rect width="350" height="342"/><g id="Livello_2" data-name="Livello 2"><g id="Livello_1-2" data-name="Livello 1-2"><path d="M125.28,149.45c-.81,1.8-1.55,3.51-2.42,5.16a92,92,0,0,0-9.06,30.25c-.71,5.65-1.41,11.35-2,17a57.66,57.66,0,0,0-.4,9.1c.33,5.51,3.31,9.21,8.53,11.07a25.54,25.54,0,0,0,10.66,1.23c6.1-.47,10.49-3.46,12.91-9.16a20,20,0,0,0,1.62-7.89V146.38a23.3,23.3,0,0,0-1.62-8.46,30.19,30.19,0,0,0-32.14-19.06,28.43,28.43,0,0,0-24.62,23.31,63.15,63.15,0,0,0-.5,13.39c.35,10.94,2,21.78,3.23,32.62.21,1.9.44,3.8.67,5.73H77.71a2,2,0,0,1,0-.35c1.13-10.56,2.34-21.12,3.39-31.68a82.86,82.86,0,0,0,.29-17c-1.21-11-6.84-19-16.81-23.87-5.89-2.8-12.1-2.89-18.37-1.7a28.62,28.62,0,0,0-23.59,28.44q0,28.88,0,57.72a24.34,24.34,0,0,0,.77,6.07c1.55,6,5.16,10.1,11.37,11.41A24.68,24.68,0,0,0,48,222a11.75,11.75,0,0,0,7-5.84,15.75,15.75,0,0,0,1.5-8.76c-.43-4.73-.81-9.48-1.44-14.17C54.17,187.14,53.17,181,52,175c-1.39-6.92-4.24-13.35-7.4-19.63-.93-1.87-1.81-3.78-2.76-5.75L54.38,147c0,.81-.06,1.41,0,2q1.5,13.6,3,27.22c.72,6.11,1.29,12.17,2,18.21a84.11,84.11,0,0,0,1.33,9.48c2.57,10.89,10.76,18.07,21.49,18.94a23.2,23.2,0,0,0,15.18-3.7c4.85-3.27,7.66-8,9.33-13.51,1.48-4.84,1.54-9.86,2.07-14.83q1-9.69,2-19.46.91-9.33,1.79-18.65c.18-2,.29-4,.43-6l12.31,2.78" fill="#fff"/><path d="M174.62,167.57c.8-6.86,3.82-13.39,9-19.42,10.23,1.4,20.67,2.48,31,3.23a72.2,72.2,0,0,0-2.57,16.2Zm71.5,27v23.87c-10.26-1.14-19.48-9.76-24.78-23.19,8.29-.4,16.62-.63,24.78-.68m-29.85.95c3.39,9.2,8.7,16.87,15.07,21.78-17.9-2.72-33.41-9.55-43.92-19.36,9.55-1.06,19.25-1.87,28.85-2.42m.67-23.06h29.18v17.23c-8.71.05-17.6.31-26.43.76a67.2,67.2,0,0,1-2.75-18m-.71-25.81c-9.27-.64-18.78-1.62-28.29-2.81,10.44-9.48,25.67-16.14,43.11-18.83-6.26,4.86-11.49,12.51-14.78,21.6m29.85,6v15H217a66.92,66.92,0,0,1,2.64-15.89c8.81.55,17.75.81,26.47.91m-24.82-5.65c5.13-13.1,14.11-21.78,24.05-23.23h.8v24c-8.15-.05-16.5-.33-24.82-.81m-6.59,43.8c-10.53.63-21.14,1.61-31.51,2.79-5.48-6.53-8.43-13.61-8.75-21.05h37.62a72.25,72.25,0,0,0,2.64,18.26m107.73-18.26c-.32,7.33-3.33,14.58-8.72,21-10.16-1.26-20.76-2.22-31.51-2.85a72.13,72.13,0,0,0,2.62-18.13Zm-37.67-4.84a71.1,71.1,0,0,0-2.55-16.13c10.49-.75,20.86-1.88,31-3.35,5.25,6,8.3,12.58,9.09,19.47ZM251,147.72V123.65h.53c10,1.47,19,10.17,24.13,23.31-8.17.47-16.45.72-24.66.75m28.91,19.85H251v-15c8.74,0,17.58-.32,26.29-.84a66.16,66.16,0,0,1,2.62,15.81m-14-42.62c17.43,2.71,32.65,9.35,43.08,18.81-9.24,1.27-18.73,2.24-28.24,2.9-3.34-9.13-8.57-16.77-14.84-21.71m9.74,70.2c-5.27,13.36-14.4,22-24.64,23.24V194.54c8.25,0,16.53.22,24.61.6m5.08.27c9.77.55,19.47,1.38,28.86,2.47-10.49,9.82-26,16.67-44,19.36,6.39-4.92,11.71-12.62,15.11-21.86M251,189.65V172.44h29a68,68,0,0,1-2.75,17.92c-8.73-.43-17.56-.66-26.27-.68m52.88-55.89c-13.94-9.13-32.4-14.43-51.94-15a24.31,24.31,0,0,0-6.92,0c-19.58.55-38,5.85-52,14.95-15.16,9.9-23.5,23.15-23.5,37.34s8.34,27.43,23.5,37.32c14.85,9.69,34.53,15,55.42,15s40.58-5.33,55.42-15c15.16-9.89,23.51-23.15,23.51-37.32s-8.35-27.44-23.51-37.34" fill="#fff"/></g></g></g></g></svg>